<svg data-v-423bf9ae="" xmlns="http://www.w3.org/2000/svg" viewBox="0 0 344 90" class="iconLeft"><!----><!----><!----><g data-v-423bf9ae="" id="4611ee3c-a219-42ae-8526-685b77af5dd7" fill="white" transform="matrix(5.123825773231559,0,0,5.123825773231559,111.34607785927949,-39.363790171698014)"><path d="M5.84 10.61L5.84 10.61Q6.40 10.79 6.71 11.21L6.71 11.21L6.71 11.21Q7.01 11.63 7.01 12.18L7.01 12.18L7.01 12.18Q7.01 12.47 6.94 12.82L6.94 12.82L6.94 12.82Q6.86 13.17 6.73 13.43L6.73 13.43L4.30 18.24L4.30 18.24Q4.27 18.27 4.18 18.30L4.18 18.30L4.18 18.30Q4.09 18.33 4.02 18.33L4.02 18.33L4.02 18.33Q3.91 18.33 3.80 18.28L3.80 18.28L3.80 18.28Q3.70 18.24 3.68 18.20L3.68 18.20L1.26 12.91L1.26 12.91Q0.91 12.26 0.53 12.26L0.53 12.26L0.53 12.26Q0.39 12.26 0.27 12.36L0.27 12.36L0.27 12.36Q0.15 12.45 0.11 12.47L0.11 12.47L-0.01 12.32L-0.01 12.32Q0.15 11.79 0.61 11.44L0.61 11.44L0.61 11.44Q1.06 11.09 1.53 11.09L1.53 11.09L1.53 11.09Q1.79 11.09 2.00 11.44L2.00 11.44L2.00 11.44Q2.20 11.79 2.32 12.12L2.32 12.12L2.32 12.12Q2.45 12.45 2.49 12.54L2.49 12.54L4.45 16.90L5.70 14.36L5.70 14.36Q5.71 14.32 5.82 14.06L5.82 14.06L5.82 14.06Q5.92 13.79 5.92 13.54L5.92 13.54L5.92 13.54Q5.92 12.50 4.80 11.98L4.80 11.98L5.84 10.61ZM11.05 10.96L11.30 11.26L11.30 11.26Q10.25 11.93 9.65 12.75L9.65 12.75L9.65 12.75Q9.04 13.58 9.04 14.70L9.04 14.70L9.04 14.70Q9.04 15.33 9.31 15.97L9.31 15.97L9.31 15.97Q9.58 16.60 10.11 17.02L10.11 17.02L10.11 17.02Q10.64 17.44 11.38 17.44L11.38 17.44L11.38 17.44Q11.98 17.44 12.45 17.16L12.45 17.16L12.45 17.16Q12.92 16.88 13.18 16.41L13.18 16.41L13.18 16.41Q13.44 15.93 13.44 15.36L13.44 15.36L13.44 15.36Q13.44 14.70 13.04 14.01L13.04 14.01L13.04 14.01Q12.64 13.33 12.00 12.85L12.00 12.85L12.00 12.85Q11.35 12.38 10.68 12.32L10.68 12.32L10.68 12.32Q10.96 12.04 11.35 11.73L11.35 11.73L11.35 11.73Q11.75 11.42 12.15 11.13L12.15 11.13L12.15 11.13Q13.12 11.45 13.68 12.36L13.68 12.36L13.68 12.36Q14.24 13.26 14.24 14.36L14.24 14.36L14.24 14.36Q14.24 15.34 13.84 16.25L13.84 16.25L13.84 16.25Q13.44 17.15 12.67 17.72L12.67 17.72L12.67 17.72Q11.90 18.28 10.85 18.28L10.85 18.28L10.85 18.28Q10.01 18.28 9.30 17.87L9.30 17.87L9.30 17.87Q8.60 17.46 8.19 16.74L8.19 16.74L8.19 16.74Q7.78 16.03 7.78 15.16L7.78 15.16L7.78 15.16Q7.78 13.64 8.69 12.52L8.69 12.52L8.69 12.52Q9.59 11.40 11.05 10.96L11.05 10.96ZM21.63 10.89L21.63 17.33L21.63 17.33Q21.63 18.65 21.11 19.80L21.11 19.80L21.11 19.80Q20.58 20.94 19.71 21.63L19.71 21.63L19.71 21.63Q18.84 22.32 17.86 22.32L17.86 22.32L17.86 22.32Q17.49 22.32 17.15 22.20L17.15 22.20L17.15 22.20Q16.81 22.09 16.45 21.83L16.45 21.83L17.43 20.58L17.43 20.58Q17.72 20.87 18.12 21.06L18.12 21.06L18.12 21.06Q18.52 21.24 18.87 21.24L18.87 21.24L18.87 21.24Q19.31 21.24 19.66 20.72L19.66 20.72L19.66 20.72Q20.01 20.20 20.21 19.29L20.21 19.29L20.21 19.29Q20.41 18.38 20.41 17.23L20.41 17.23L20.41 17.23Q20.41 14.63 20.43 13.89L20.43 13.89L20.43 13.05L20.34 13.05L20.34 13.05Q19.19 18.26 17.36 18.26L17.36 18.26L17.36 18.26Q16.95 18.26 16.76 18.10L16.76 18.10L16.76 18.10Q16.56 17.93 16.49 17.51L16.49 17.51L16.49 17.51Q16.42 17.09 16.42 16.24L16.42 16.24L16.42 12.29L16.42 12.29Q16.42 12.07 16.31 11.91L16.31 11.91L16.31 11.91Q16.20 11.76 16.03 11.76L16.03 11.76L16.03 11.76Q15.68 11.76 15.29 12.33L15.29 12.33L15.06 12.11L15.06 12.11Q15.37 11.45 15.67 11.21L15.67 11.21L15.67 11.21Q15.97 10.98 16.55 10.98L16.55 10.98L16.55 10.98Q17.11 10.98 17.39 11.33L17.39 11.33L17.39 11.33Q17.67 11.69 17.67 12.38L17.67 12.38L17.67 16.20L17.67 16.20Q17.67 16.72 17.96 16.72L17.96 16.72L17.96 16.72Q18.31 16.72 18.86 15.76L18.86 15.76L18.86 15.76Q19.40 14.81 19.82 13.56L19.82 13.56L19.82 13.56Q20.24 12.31 20.24 11.52L20.24 11.52L21.63 10.89ZM27.16 11.09L27.16 11.09Q27.85 11.09 28.45 11.38L28.45 11.38L28.45 11.38Q29.06 11.68 29.34 12.28L29.34 12.28L28.34 12.82L28.34 12.82Q28.11 12.50 27.72 12.24L27.72 12.24L27.72 12.24Q27.33 11.98 26.88 11.98L26.88 11.98L26.88 11.98Q26.17 11.98 25.63 12.36L25.63 12.36L25.63 12.36Q25.10 12.73 24.82 13.36L24.82 13.36L24.82 13.36Q24.54 13.99 24.54 14.76L24.54 14.76L24.54 14.76Q24.54 15.86 24.92 16.55L24.92 16.55L24.92 16.55Q25.30 17.25 26.11 17.25L26.11 17.25L26.11 17.25Q27.26 17.25 27.69 16.32L27.69 16.32L27.69 16.32Q28.13 15.40 28.13 14.31L28.13 14.31L28.13 13.68L29.36 13.16L29.36 16.84L29.36 16.84Q29.36 17.02 29.46 17.19L29.46 17.19L29.46 17.19Q29.55 17.36 29.75 17.36L29.75 17.36L29.75 17.36Q30.16 17.36 30.49 16.80L30.49 16.80L30.70 17.02L30.70 17.02Q30.53 17.50 30.11 17.83L30.11 17.83L30.11 17.83Q29.69 18.16 29.27 18.16L29.27 18.16L29.27 18.16Q28.67 18.16 28.38 17.71L28.38 17.71L28.38 17.71Q28.10 17.26 28.10 16.52L28.10 16.52L28.07 16.52L28.07 16.52Q27.72 17.26 27.13 17.76L27.13 17.76L27.13 17.76Q26.53 18.26 25.87 18.26L25.87 18.26L25.87 18.26Q24.68 18.26 24.07 17.44L24.07 17.44L24.07 17.44Q23.46 16.62 23.46 15.25L23.46 15.25L23.46 15.25Q23.46 14.15 23.95 13.20L23.95 13.20L23.95 13.20Q24.44 12.24 25.29 11.66L25.29 11.66L25.29 11.66Q26.14 11.09 27.16 11.09L27.16 11.09ZM35.17 10.91L35.17 10.91Q35.84 10.91 36.46 11.28L36.46 11.28L36.46 11.28Q37.07 11.65 37.39 12.28L37.39 12.28L36.39 12.82L36.39 12.82Q36.18 12.33 35.78 12.05L35.78 12.05L35.78 12.05Q35.39 11.77 34.92 11.77L34.92 11.77L34.92 11.77Q34.22 11.77 33.69 12.25L33.69 12.25L33.69 12.25Q33.17 12.73 32.88 13.43L32.88 13.43L32.88 13.43Q32.59 14.13 32.59 14.76L32.59 14.76L32.59 14.76Q32.59 15.74 33.01 16.49L33.01 16.49L33.01 16.49Q33.42 17.25 34.33 17.25L34.33 17.25L34.33 17.25Q35.36 17.25 35.76 16.32L35.76 16.32L35.76 16.32Q36.15 15.39 36.15 14.31L36.15 14.31L36.15 13.68L37.41 13.16L37.41 17.44L37.41 17.44Q37.41 18.49 36.92 19.61L36.92 19.61L36.92 19.61Q36.43 20.73 35.57 21.48L35.57 21.48L35.57 21.48Q34.71 22.22 33.63 22.22L33.63 22.22L33.63 22.22Q32.86 22.22 32.41 21.69L32.41 21.69L33.60 20.68L33.60 20.68Q33.70 20.93 33.93 21.08L33.93 21.08L33.93 21.08Q34.16 21.24 34.51 21.24L34.51 21.24L34.51 21.24Q35.56 21.24 35.88 20.46L35.88 20.46L35.88 20.46Q36.19 19.68 36.19 18.51L36.19 18.51L36.15 17.36L36.15 17.36Q36.15 16.84 36.25 16.52L36.25 16.52L36.15 16.52L36.15 16.52Q35.63 17.33 35.15 17.79L35.15 17.79L35.15 17.79Q34.66 18.26 33.99 18.26L33.99 18.26L33.99 18.26Q32.79 18.26 32.14 17.46L32.14 17.46L32.14 17.46Q31.50 16.67 31.50 15.46L31.50 15.46L31.50 15.46Q31.50 14.27 31.98 13.22L31.98 13.22L31.98 13.22Q32.47 12.18 33.31 11.54L33.31 11.54L33.31 11.54Q34.16 10.91 35.17 10.91L35.17 10.91ZM43.08 10.96L43.08 10.96Q43.83 10.96 44.34 11.37L44.34 11.37L44.34 11.37Q44.84 11.77 44.84 12.57L44.84 12.57L44.84 12.57Q44.84 13.22 44.15 14.01L44.15 14.01L44.15 14.01Q43.46 14.80 42.52 15.46L42.52 15.46L42.52 15.46Q41.59 16.11 40.94 16.38L40.94 16.38L40.94 16.38Q41.29 16.94 41.73 17.16L41.73 17.16L41.73 17.16Q42.18 17.37 42.78 17.37L42.78 17.37L42.78 17.37Q43.46 17.37 44.12 17.03L44.12 17.03L44.12 17.03Q44.79 16.69 45.22 16.14L45.22 16.14L45.39 16.44L45.39 16.44Q44.70 17.32 43.93 17.79L43.93 17.79L43.93 17.79Q43.16 18.26 42.04 18.26L42.04 18.26L42.04 18.26Q41.19 18.26 40.52 17.84L40.52 17.84L40.52 17.84Q39.84 17.42 39.47 16.71L39.47 16.71L39.47 16.71Q39.09 16.00 39.09 15.18L39.09 15.18L39.09 15.18Q39.09 14.14 39.65 13.16L39.65 13.16L39.65 13.16Q40.21 12.18 41.13 11.57L41.13 11.57L41.13 11.57Q42.06 10.96 43.08 10.96L43.08 10.96ZM42.35 11.84L42.35 11.84Q41.73 11.84 41.25 12.24L41.25 12.24L41.25 12.24Q40.77 12.63 40.49 13.24L40.49 13.24L40.49 13.24Q40.22 13.86 40.22 14.52L40.22 14.52L40.22 14.52Q40.22 15.39 40.63 16.00L40.63 16.00L40.63 16.00Q41.22 15.74 41.90 15.20L41.90 15.20L41.90 15.20Q42.59 14.66 43.06 14.03L43.06 14.03L43.06 14.03Q43.54 13.40 43.54 12.88L43.54 12.88L43.54 12.88Q43.54 11.84 42.35 11.84L42.35 11.84Z"></path></g><!----><g data-v-423bf9ae="" id="4d27213a-388f-4865-82db-8a3aca8d665d" transform="matrix(2.852072528086791,0,0,2.852072528086791,0.3618419448213217,-0.41116010653409063)" stroke="none" fill="white"><path d="M16 23.787L8.102 16 16 8.213 23.898 16 16 23.787zM9.525 16L16 22.383 22.475 16 16 9.617 9.525 16z"></path><path d="M15.915 31.778L-.005 16.084 16.085.222l15.92 15.694-16.09 15.862zM1.419 16.084l14.496 14.29 14.666-14.458-14.496-14.29L1.419 16.084z"></path><path d="M15.5.924h1v30.152h-1z"></path></g><!----></svg>